<svg width="236" height="152" viewBox="0 0 236 152" fill="none" xmlns="http://www.w3.org/2000/svg">
<mask id="mask0" mask-type="alpha" maskUnits="userSpaceOnUse" x="0" y="0" width="236" height="152">
<path d="M0 12C0 5.37258 5.37258 0 12 0H224C230.627 0 236 5.37258 236 12V152H0V12Z" fill="#EED9FF"/>
</mask>
<g mask="url(#mask0)">
<g filter="url(#filter0_f)">
<path d="M207.301 99.8706L181.203 151.613L183.831 173.99L226.507 217.285L275.513 169.57L250.92 95.3578L207.301 99.8706Z" fill="#FF4C00"/>
</g>
<g filter="url(#filter1_f)">
<path d="M-18.4422 -2.89043L-52.7269 72.0069L-45.2739 108.638L29.3366 190.963L100.885 129.496L50.7453 3.17439L-18.4422 -2.89043Z" fill="#FF4C00"/>
</g>
<g filter="url(#filter2_f)">
<path d="M49.1419 -4.2749L56.6167 35.2996L61.2734 80.4019L102.863 103.06L117.089 83.265L139.437 68.5047L140.39 -11.4548L49.1419 -4.2749Z" fill="#7000FF"/>
</g>
</g>
<defs>
<filter id="filter0_f" x="98.5945" y="12.7491" width="259.527" height="287.144" filterUnits="userSpaceOnUse" color-interpolation-filters="sRGB">
<feFlood flood-opacity="0" result="BackgroundImageFix"/>
<feBlend mode="normal" in="SourceGraphic" in2="BackgroundImageFix" result="shape"/>
<feGaussianBlur stdDeviation="41.3043" result="effect1_foregroundBlur"/>
</filter>
<filter id="filter1_f" x="-135.336" y="-85.499" width="318.829" height="359.071" filterUnits="userSpaceOnUse" color-interpolation-filters="sRGB">
<feFlood flood-opacity="0" result="BackgroundImageFix"/>
<feBlend mode="normal" in="SourceGraphic" in2="BackgroundImageFix" result="shape"/>
<feGaussianBlur stdDeviation="41.3043" result="effect1_foregroundBlur"/>
</filter>
<filter id="filter2_f" x="-33.4667" y="-94.0635" width="256.466" height="279.732" filterUnits="userSpaceOnUse" color-interpolation-filters="sRGB">
<feFlood flood-opacity="0" result="BackgroundImageFix"/>
<feBlend mode="normal" in="SourceGraphic" in2="BackgroundImageFix" result="shape"/>
<feGaussianBlur stdDeviation="41.3043" result="effect1_foregroundBlur"/>
</filter>
</defs>
</svg>
