<svg width="132" height="106" viewBox="0 0 132 106" fill="none" xmlns="http://www.w3.org/2000/svg">
<mask id="path-1-inside-1" fill="white">
<path fill-rule="evenodd" clip-rule="evenodd" d="M33.6333 0C15.0582 0 0 15.0582 0 33.6333C0 52.2085 15.0581 67.2667 33.6333 67.2667H60.1319C61.7539 67.2667 62.7012 69.0958 61.7654 70.4206L55.5099 79.276C54.7708 80.3222 55.1921 81.7838 56.3746 82.2763L64.3099 85.5805C65.3817 86.0268 65.8495 87.2889 65.3276 88.3259L58.3865 102.118C57.3936 104.091 59.8606 105.98 61.5066 104.508L83.741 84.6137C84.8105 83.6568 84.5539 81.9183 83.2537 81.3111L75.6578 77.7638C74.4527 77.201 74.1224 75.6404 74.9963 74.6376L80.8223 67.9527C81.2021 67.5168 81.752 67.2667 82.3301 67.2667H98.3456C116.921 67.2667 131.979 52.2085 131.979 33.6333C131.979 15.0582 116.921 0 98.3456 0H33.6333Z"/>
</mask>
<path fill-rule="evenodd" clip-rule="evenodd" d="M33.6333 0C15.0582 0 0 15.0582 0 33.6333C0 52.2085 15.0581 67.2667 33.6333 67.2667H60.1319C61.7539 67.2667 62.7012 69.0958 61.7654 70.4206L55.5099 79.276C54.7708 80.3222 55.1921 81.7838 56.3746 82.2763L64.3099 85.5805C65.3817 86.0268 65.8495 87.2889 65.3276 88.3259L58.3865 102.118C57.3936 104.091 59.8606 105.98 61.5066 104.508L83.741 84.6137C84.8105 83.6568 84.5539 81.9183 83.2537 81.3111L75.6578 77.7638C74.4527 77.201 74.1224 75.6404 74.9963 74.6376L80.8223 67.9527C81.2021 67.5168 81.752 67.2667 82.3301 67.2667H98.3456C116.921 67.2667 131.979 52.2085 131.979 33.6333C131.979 15.0582 116.921 0 98.3456 0H33.6333Z" fill="#CADCFF"/>
<path d="M80.8223 67.9527L78.5607 65.9816L80.8223 67.9527ZM75.6578 77.7638L74.3884 80.482L75.6578 77.7638ZM74.9963 74.6376L72.7347 72.6666L74.9963 74.6376ZM83.2537 81.3111L84.5231 78.5929L83.2537 81.3111ZM58.3865 102.118L55.7067 100.77L58.3865 102.118ZM61.5066 104.508L63.507 106.743L61.5066 104.508ZM64.3099 85.5805L65.4631 82.811L64.3099 85.5805ZM55.5099 79.276L57.9602 81.0069L55.5099 79.276ZM56.3746 82.2763L55.2214 85.0457L56.3746 82.2763ZM3 33.6333C3 16.715 16.715 3 33.6333 3V-3C13.4013 -3 -3 13.4013 -3 33.6333H3ZM33.6333 64.2667C16.715 64.2667 3 50.5517 3 33.6333H-3C-3 53.8654 13.4013 70.2667 33.6333 70.2667V64.2667ZM60.1319 64.2667H33.6333V70.2667H60.1319V64.2667ZM59.3151 68.6897L53.0596 77.5451L57.9602 81.0069L64.2157 72.1515L59.3151 68.6897ZM55.2214 85.0457L63.1567 88.35L65.4631 82.811L57.5279 79.5068L55.2214 85.0457ZM62.6478 86.9773L55.7067 100.77L61.0663 103.467L68.0074 89.6746L62.6478 86.9773ZM63.507 106.743L85.7414 86.8494L81.7406 82.378L59.5062 102.272L63.507 106.743ZM84.5231 78.5929L76.9272 75.0456L74.3884 80.482L81.9843 84.0293L84.5231 78.5929ZM77.258 76.6087L83.084 69.9237L78.5607 65.9816L72.7347 72.6666L77.258 76.6087ZM98.3456 64.2667H82.3301V70.2667H98.3456V64.2667ZM128.979 33.6333C128.979 50.5517 115.264 64.2667 98.3456 64.2667V70.2667C118.578 70.2667 134.979 53.8654 134.979 33.6333H128.979ZM98.3456 3C115.264 3 128.979 16.715 128.979 33.6333H134.979C134.979 13.4013 118.578 -3 98.3456 -3V3ZM33.6333 3H98.3456V-3H33.6333V3ZM83.084 69.9237C82.894 70.1416 82.6191 70.2667 82.3301 70.2667V64.2667C80.8848 64.2667 79.5102 64.8921 78.5607 65.9816L83.084 69.9237ZM76.9272 75.0456C77.5298 75.327 77.6949 76.1073 77.258 76.6087L72.7347 72.6666C70.5499 75.1735 71.3755 79.0749 74.3884 80.482L76.9272 75.0456ZM85.7414 86.8494C88.415 84.4572 87.7737 80.111 84.5231 78.5929L81.9843 84.0293C81.3342 83.7257 81.2059 82.8564 81.7406 82.378L85.7414 86.8494ZM55.7067 100.77C53.2244 105.702 59.392 110.425 63.507 106.743L59.5062 102.272C59.6405 102.152 59.8903 102.033 60.1907 102.033C60.4533 102.034 60.6513 102.124 60.781 102.223C60.9107 102.323 61.0496 102.49 61.1185 102.744C61.1973 103.034 61.1473 103.306 61.0663 103.467L55.7067 100.77ZM63.1567 88.35C62.6208 88.1269 62.3868 87.4958 62.6478 86.9773L68.0074 89.6746C69.3121 87.0819 68.1425 83.9268 65.4631 82.811L63.1567 88.35ZM53.0596 77.5451C51.2119 80.1607 52.2651 83.8147 55.2214 85.0457L57.5279 79.5068C58.1191 79.753 58.3298 80.4838 57.9602 81.0069L53.0596 77.5451ZM60.1319 70.2667C59.3209 70.2667 58.8472 69.3521 59.3151 68.6897L64.2157 72.1515C66.5553 68.8396 64.1868 64.2667 60.1319 64.2667V70.2667Z" fill="#6FA0FF" mask="url(#path-1-inside-1)"/>
</svg>
