<svg width="115" height="115" viewBox="0 0 115 115" fill="none" xmlns="http://www.w3.org/2000/svg">
<circle cx="57.5" cy="57.5" r="56" fill="#FFBDA1" stroke="#EF4821" stroke-width="3"/>
<path d="M98.5 57.5C98.5 73.0901 93.8273 87.1449 86.3458 97.2671C78.8639 107.39 68.6486 113.5 57.5 113.5C46.3514 113.5 36.1361 107.39 28.6542 97.2671C21.1727 87.1449 16.5 73.0901 16.5 57.5C16.5 41.9099 21.1727 27.8551 28.6542 17.7329C36.1361 7.61046 46.3514 1.5 57.5 1.5C68.6486 1.5 78.8639 7.61046 86.3458 17.7329C93.8273 27.8551 98.5 41.9099 98.5 57.5Z" fill="#FFBDA1" stroke="#EF4821" stroke-width="3"/>
<path d="M77.5 57.5C77.5 73.2464 75.111 87.4353 71.2978 97.6333C69.3891 102.738 67.1525 106.764 64.7449 109.488C62.3356 112.213 59.8838 113.5 57.5 113.5C55.1162 113.5 52.6644 112.213 50.2551 109.488C47.8475 106.764 45.6109 102.738 43.7022 97.6333C39.889 87.4353 37.5 73.2464 37.5 57.5C37.5 41.7536 39.889 27.5647 43.7022 17.3667C45.6109 12.2621 47.8475 8.23551 50.2551 5.51213C52.6644 2.78672 55.1162 1.5 57.5 1.5C59.8838 1.5 62.3356 2.78672 64.7449 5.51213C67.1525 8.23551 69.3891 12.2621 71.2978 17.3667C75.111 27.5647 77.5 41.7536 77.5 57.5Z" fill="#FFBDA1" stroke="#EF4821" stroke-width="3"/>
<line x1="58.5" y1="1" x2="58.5" y2="113" stroke="#EF4821" stroke-width="3"/>
</svg>
