<svg width="201" height="77" viewBox="0 0 201 77" fill="none" xmlns="http://www.w3.org/2000/svg">
<rect x="1.5" y="1.5" width="197.642" height="45.78" rx="22.89" fill="#E3CDFF"/>
<path d="M34.3403 31.2038V28.9065H26.8521V24.5329H33.5451V22.2577H26.8521V18.0387H34.3403V15.7414H24.0909V31.2038H34.3403ZM46.8299 20.1592H44.0025L42.6772 22.1693C42.3679 22.6111 41.9703 23.2959 41.7273 23.6714C41.4623 23.2296 41.0868 22.589 40.7996 22.1472L39.4301 20.1592H36.6027L40.2695 25.4164L36.2934 31.2038H39.1208L40.5345 29.0832C41.0647 28.2659 41.3739 27.7137 41.6832 27.1836C41.9924 27.7137 42.4784 28.531 42.8539 29.1053L44.2676 31.2038H47.1171L43.141 25.4164L46.8299 20.1592ZM58.2272 21.7276C57.2994 20.5568 55.8195 19.8942 54.0744 19.8942C52.3957 19.8942 51.0703 20.4243 50.0984 21.4404C49.1044 22.5007 48.6184 23.9586 48.6184 25.6594C48.6184 27.4486 49.0823 28.9065 50.0984 29.9447C51.0482 30.9166 52.3736 31.4688 54.0965 31.4688C56.9239 31.4688 58.7352 30.2098 59.3095 27.6695L56.7693 27.4707C56.5263 28.8181 55.6869 29.5029 54.0744 29.5029C52.241 29.5029 51.3133 28.4647 51.2691 26.4104H59.4863C59.5525 24.5108 59.1107 22.832 58.2272 21.7276ZM54.0744 21.8601C55.0464 21.8601 55.709 22.1252 56.195 22.7216C56.5705 23.1854 56.7693 23.826 56.8135 24.4445H51.2912C51.3354 23.9144 51.49 23.318 51.8434 22.832C52.2852 22.2135 53.0362 21.8601 54.0744 21.8601ZM67.347 31.4688C70.1082 31.4688 72.0078 29.9226 72.3612 27.6916L69.8431 27.4265C69.5118 28.7961 68.7607 29.4808 67.347 29.4808C65.1602 29.4808 64.608 28.0671 64.608 25.6815C64.608 24.4224 64.7847 23.4063 65.2707 22.7437C65.6904 22.1914 66.3309 21.8822 67.347 21.8822C69.0258 21.8822 69.578 23.0087 69.8431 24.2457L72.3171 23.8039C71.8753 21.5508 70.2849 19.8942 67.347 19.8942C63.8349 19.8942 61.7585 22.2798 61.7585 25.6815C61.7585 29.3041 63.8349 31.4688 67.347 31.4688ZM82.1942 26.2558C82.1942 28.8844 80.8246 29.4146 79.8085 29.4146C79.168 29.4146 78.5716 29.3704 78.0635 28.8402C77.5113 28.2659 77.5113 27.4486 77.5113 26.4988V20.1592H74.8385V26.6313C74.8385 27.9567 74.9048 29.3262 75.7883 30.2539C76.5835 31.0933 77.5555 31.4688 78.9692 31.4688C80.4933 31.4688 81.6198 30.8062 82.2163 29.5913V31.2038H84.7786V20.1592H82.1942V26.2558ZM93.5429 31.3142C94.1393 31.3142 94.8904 31.2479 95.4205 31.1154L95.3763 28.8844C94.8462 29.0169 94.3161 29.0832 93.8743 29.0832C92.8361 29.0832 92.3501 28.8623 92.3501 28.0009V22.2577H95.4426V20.1592H92.3501V17.0889H89.7878V20.1592H87.5347V22.2577H89.7878V28.2438C89.7878 30.4969 91.1131 31.3142 93.5429 31.3142ZM107.561 21.7276C106.633 20.5568 105.153 19.8942 103.408 19.8942C101.729 19.8942 100.404 20.4243 99.4321 21.4404C98.4381 22.5007 97.9521 23.9586 97.9521 25.6594C97.9521 27.4486 98.416 28.9065 99.4321 29.9447C100.382 30.9166 101.707 31.4688 103.43 31.4688C106.258 31.4688 108.069 30.2098 108.643 27.6695L106.103 27.4707C105.86 28.8181 105.021 29.5029 103.408 29.5029C101.575 29.5029 100.647 28.4647 100.603 26.4104H108.82C108.886 24.5108 108.444 22.832 107.561 21.7276ZM103.408 21.8601C104.38 21.8601 105.043 22.1252 105.529 22.7216C105.904 23.1854 106.103 23.826 106.147 24.4445H100.625C100.669 23.9144 100.824 23.318 101.177 22.832C101.619 22.2135 102.37 21.8601 103.408 21.8601ZM126.202 31.3142C126.798 31.3142 127.549 31.2479 128.08 31.1154L128.035 28.8844C127.505 29.0169 126.975 29.0832 126.533 29.0832C125.495 29.0832 125.009 28.8623 125.009 28.0009V22.2577H128.102V20.1592H125.009V17.0889H122.447V20.1592H120.194V22.2577H122.447V28.2438C122.447 30.4969 123.772 31.3142 126.202 31.3142ZM138.473 19.9163C136.441 20.093 135.182 21.0428 134.762 22.324V20.1592H132.177V31.2038H134.784V26.2337C134.784 23.1413 136.286 22.2577 138.627 22.2577C138.892 22.2577 139.135 22.2577 139.467 22.2798L139.533 19.8942C139.18 19.8942 138.716 19.8942 138.473 19.9163ZM151.004 23.5389C151.004 21.1312 149.392 19.8942 146.542 19.8942C144.996 19.8942 143.781 20.1813 142.964 20.7556C142.124 21.33 141.638 22.2577 141.572 23.5609L144.134 23.8923C144.156 22.346 144.863 21.8159 146.387 21.8159C147.293 21.8159 147.845 22.0147 148.155 22.4344C148.464 22.8762 148.464 23.4063 148.464 24.1353L145.173 24.7538C143.162 25.1293 141.196 25.7919 141.196 28.1555C141.196 30.3865 142.986 31.4688 145.018 31.4688C146.829 31.4688 148.022 30.7178 148.596 29.6354C148.596 30.3202 148.663 30.7841 148.751 31.2038H151.38V31.1154C151.159 30.5853 151.004 29.9447 151.004 29.2157V23.5389ZM145.57 29.5471C144.62 29.5471 143.869 29.0832 143.869 28.1334C143.869 27.1173 144.576 26.786 145.592 26.543L148.464 25.9245V26.9627C148.464 28.5973 147.448 29.5471 145.57 29.5471ZM161.323 21.5067C160.572 20.4464 159.446 19.8942 158.01 19.8942C155.05 19.8942 153.062 22.1914 153.062 25.6815C153.062 29.282 155.16 31.4688 158.054 31.4688C159.512 31.4688 160.682 30.8503 161.323 29.6354V31.2038H163.93V15.7414H161.323V21.5067ZM160.55 28.7519C160.108 29.2599 159.468 29.5471 158.65 29.5471C156.508 29.5471 155.911 28.2217 155.911 25.6815C155.911 24.3782 156.088 23.3842 156.574 22.7437C156.994 22.1472 157.678 21.838 158.694 21.838C160.793 21.838 161.389 23.4947 161.389 25.7036C161.389 27.0731 161.124 28.0892 160.55 28.7519ZM176.201 21.7276C175.273 20.5568 173.793 19.8942 172.048 19.8942C170.369 19.8942 169.044 20.4243 168.072 21.4404C167.078 22.5007 166.592 23.9586 166.592 25.6594C166.592 27.4486 167.056 28.9065 168.072 29.9447C169.022 30.9166 170.347 31.4688 172.07 31.4688C174.898 31.4688 176.709 30.2098 177.283 27.6695L174.743 27.4707C174.5 28.8181 173.661 29.5029 172.048 29.5029C170.215 29.5029 169.287 28.4647 169.243 26.4104H177.46C177.526 24.5108 177.084 22.832 176.201 21.7276ZM172.048 21.8601C173.02 21.8601 173.683 22.1252 174.169 22.7216C174.544 23.1854 174.743 23.826 174.787 24.4445H169.265C169.309 23.9144 169.464 23.318 169.817 22.832C170.259 22.2135 171.01 21.8601 172.048 21.8601Z" fill="#7000FF"/>
<rect x="1.5" y="1.5" width="197.642" height="45.78" rx="22.89" stroke="#7000FF" stroke-width="3"/>
<path d="M138.476 76.2579L127.642 39.2579L161.642 56.622C161.642 56.622 153.392 55.8917 146.142 61.6527C138.892 67.4136 138.476 76.2579 138.476 76.2579Z" fill="#7000FF" stroke="white" stroke-width="2"/>
</svg>
