<svg width="118" height="32" viewBox="0 0 118 32" fill="none" xmlns="http://www.w3.org/2000/svg">
<path d="M3.6049 32L3.6049 22.799L6.14021 20.1934L3.6049 17.5878L3.6049 4.19338L8.71513 4.19338V0.488548L0 0.488548L0 32H3.6049ZM14.1423 17.5471L11.607 14.9415L6.49674 20.1934L9.03205 22.799L14.1423 17.5471ZM15.2119 7.20611L11.607 7.20611V14.5751H15.2119V7.20611ZM11.607 1.58779L9.07166 4.19338L11.607 6.83969L14.1819 4.19338L11.607 1.58779Z" fill="black"/>
<path d="M25.9343 32L25.9343 4.19338L33.1441 4.19338V0.488548L22.3294 0.488548L22.3294 32H25.9343ZM39.1259 29.3944L31.4011 21.4555L35.9567 16.7735L33.3818 14.1679L26.2909 21.4555L36.5906 32L39.1259 29.3944ZM33.3818 13.8015H36.9867V4.47837L33.3818 4.47837V13.8015Z" fill="black"/>
<path d="M53.3195 8.06107L45.674 0.162848L43.0991 2.80916L49.7146 9.60814L49.7146 32H53.3195L53.3195 8.06107ZM56.2114 10.6667L63.8569 2.80916L61.3216 0.203562L53.6761 8.06107L56.2114 10.6667Z" fill="black"/>
<path d="M82.2862 0L75.0764 0V3.70483L82.2862 3.70483V0ZM82.5239 3.98982V7.69466L86.1288 7.69466V3.98982L82.5239 3.98982ZM72.145 1.09924L69.6096 3.70483L72.145 6.35114L74.7199 3.70483L72.145 1.09924ZM72.858 32H80.0678V28.2952L72.858 28.2952V32ZM72.6203 28.0509V24.3461H69.0154V28.0509H72.6203ZM72.145 6.71756L69.6096 9.32315L84.2669 24.3868L80.4243 28.3359L82.9993 30.9415L89.3375 24.3868L72.145 6.71756Z" fill="black"/>
<path d="M114.395 4.19338V32H118V0.488548L108.968 0.488548V4.19338L114.395 4.19338ZM95.8556 0.488548V32H99.4605V4.19338L104.888 4.19338V0.488548L95.8556 0.488548ZM105.125 23.0433H108.73V4.47837L105.125 4.47837V23.0433Z" fill="black"/>
</svg>
